<?xml version="1.0" encoding="utf-8"?>
<!-- Generator: Adobe Illustrator 23.0.1, SVG Export Plug-In . SVG Version: 6.00 Build 0)  -->
<svg version="1.1" id="Capa_1" xmlns="http://www.w3.org/2000/svg" xmlns:xlink="http://www.w3.org/1999/xlink" x="0px" y="0px"
	 viewBox="0 0 283.46 283.46" style="enable-background:new 0 0 283.46 283.46;" xml:space="preserve">
<style type="text/css">
	.st0{fill:#2C2C2C;}
	.st1{fill:#FDD0D0;stroke:#FDD0D0;stroke-width:4.0915;stroke-miterlimit:10;}
	.st2{fill:#F8F8F8;}
	.st3{fill:#F9F9F9;}
</style>
<g>
	<g>
		<path class="st0" d="M275.06,144.92c0.01,15.95-4.38,31.79-12.2,45.65c-7.76,13.92-18.73,25.96-31.49,35.51
			c-12.75,9.59-27.24,16.81-42.47,21.59c-15.24,4.8-31.21,7.19-47.19,7.33c-15.99,0-32-2.24-47.33-6.9
			c-15.32-4.66-29.95-11.76-42.87-21.3c-12.92-9.51-24.12-21.55-32.06-35.6c-7.97-14.01-12.48-30.08-12.52-46.28
			c-0.08-16.2,4.32-32.34,12.21-46.45c7.87-14.16,19.03-26.34,31.95-35.99c12.95-9.66,27.61-16.91,43.01-21.65
			c15.41-4.72,31.52-7,47.61-7.02c16.09,0.17,32.15,2.59,47.48,7.43c15.31,4.88,29.83,12.26,42.58,21.98
			c12.75,9.69,23.67,21.87,31.36,35.89C270.89,113.07,275.18,128.97,275.06,144.92z M274.65,144.92
			c-0.09-15.88-4.56-31.59-12.42-45.3c-7.88-13.73-19.01-25.42-31.77-34.64c-12.78-9.24-27.21-16.05-42.27-20.51
			c-15.06-4.52-30.79-6.65-46.48-6.58c-15.69,0.07-31.38,2.35-46.35,6.99C80.39,49.49,66.1,56.43,53.52,65.74
			c-12.59,9.25-23.48,20.94-31.17,34.53c-7.72,13.55-12.08,29.03-12.13,44.65c-0.06,15.63,4.18,31.17,11.83,44.82
			c7.62,13.69,18.47,25.52,31.06,34.92c12.6,9.43,26.93,16.51,41.98,21.19c15.06,4.69,30.84,7.01,46.63,7.11
			c15.79,0.05,31.62-2.11,46.76-6.68c15.14-4.55,29.6-11.52,42.39-20.9c12.75-9.36,23.83-21.19,31.64-35.02
			C270.3,176.57,274.67,160.8,274.65,144.92z"/>
	</g>
	<path class="st0" d="M68.04,186.26c-12.52-5.32-17.61-14.81-17.15-26.7c0.65-17.04,9.09-30.24,26.29-37.74
		c16.73-7.29,33.13,0.09,37.83,16.34c6.03,20.84-11.23,45.77-33.93,49.11c-3.57,0.52-7.02,0.06-10.52-0.3
		C69.89,186.25,68.69,187.05,68.04,186.26z"/>
	<path class="st0" d="M209.32,187.64c-28,1.22-48.02-28.86-40.44-51.03c5.03-14.69,20.67-21.32,36.31-15.33
		c18.29,6.99,30.49,27.04,27,44.75c-1.81,9.19-6.99,16.3-16.74,20.21C213.82,188.2,211.37,187.21,209.32,187.64z"/>
	<path class="st0" d="M227.2,28.24c20.31,2.03,36.73,14.19,46.68,33.96c5.63,11.19,6.78,22.75,0.92,34.33
		c-0.07,0.15-0.12,0.3-0.2,0.44c-1.5,2.55-2.96,6.14-5.71,6.52c-2.31,0.32-3.16-3.7-4.62-5.8c-15.79-22.85-37.84-39.44-63.63-52.31
		c-6.81-3.4-6.85-3.48-1.54-8.5C205.22,31.11,213.35,28.16,227.2,28.24z"/>
	<path class="st0" d="M56.23,28.24C35.92,30.27,19.5,42.43,9.55,62.2C3.92,73.39,2.78,84.95,8.63,96.53c0.07,0.15,0.12,0.3,0.2,0.44
		c1.5,2.55,2.96,6.14,5.71,6.52c2.31,0.32,3.16-3.7,4.62-5.8C34.95,74.85,57,58.25,82.79,45.38c6.81-3.4,6.85-3.48,1.54-8.5
		C78.21,31.11,70.08,28.16,56.23,28.24z"/>
	<path class="st0" d="M169.21,201.1c3.05,0.99,3.15,2.39,1.87,4.52c-5.55,9.19-18.98,10.81-27.24,3.03
		c-1.78-1.68-2.35-1.86-4.24-0.03c-8.13,7.85-21.64,6.21-27.21-2.99c-1.45-2.4-1-3.74,1.86-4.48c3.12,6.22,8.18,8.99,14.98,8.21
		c7.37-0.84,12.22-8.01,9.79-14.27c-0.56-1.44-1.73-1.56-2.91-1.77c-2.95-0.53-5.71-1.44-8.05-3.17c-4.15-3.06-4.04-7,0.2-9.93
		c6.58-4.54,20.58-4.68,27.3-0.26c4.99,3.28,4.93,7.76-0.28,10.8c-1.63,0.95-3.55,1.52-5.36,2.22c-1.81,0.71-4.74-0.19-5.34,2.13
		c-0.76,2.94-1.12,6.05,0.76,8.92c4.88,7.45,17.56,7.2,22.58-0.48C168.42,202.81,168.76,201.96,169.21,201.1z"/>
	<path class="st1" d="M225.5,187.32c0.92,0.29,1.92,0.36,2.85,0.62c4.85,1.36,8.6,4.62,8.24,7.6c-0.52,4.34-4.43,5.98-8.29,7.07
		c-7.16,2.02-14.32,2.21-20.98-1.65c-2.52-1.46-5.13-3.02-4.5-6.24c0.61-3.15,3.11-4.97,6.22-6.12
		C209.84,188.32,222.23,186.28,225.5,187.32z"/>
	<path class="st1" d="M76.71,189.66c2.65,1.71,5.16,3.43,4.78,6.6c-0.39,3.34-3.02,5.55-6.34,6.53c-6.93,2.04-13.92,2.46-20.88-0.32
		c-2.6-1.04-4.32-2.85-5.93-4.7c-1.36-1.57-0.69-3.24,0.74-4.81c4.14-4.59,10-5.19,15.84-5.92
		C66.02,186.9,74.52,188.24,76.71,189.66z"/>
	<path class="st2" d="M102.78,141.48c0.06,3.46-2.63,6.35-5.81,6.26c-3-0.08-5.43-2.87-5.41-6.21c0.02-3.39,2.44-6,5.58-6.01
		C100.28,135.53,102.72,138.1,102.78,141.48z"/>
	<path class="st3" d="M191.88,141.56c0.03,3.33-2.42,6.1-5.44,6.18c-3.22,0.08-5.86-2.78-5.79-6.27c0.06-3.37,2.54-5.96,5.67-5.93
		C189.43,135.56,191.85,138.17,191.88,141.56z"/>
</g>
</svg>
